<?xml version="1.0" standalone="no"?>
<!DOCTYPE svg PUBLIC "-//W3C//DTD SVG 20010904//EN"
 "http://www.w3.org/TR/2001/REC-SVG-20010904/DTD/svg10.dtd">
<svg version="1.0" xmlns="http://www.w3.org/2000/svg"
 width="225.000000pt" height="225.000000pt" viewBox="0 0 225.000000 225.000000"
 preserveAspectRatio="xMidYMid meet">
<metadata>
Created by potrace 1.10, written by Peter Selinger 2001-2011
</metadata>
<g transform="translate(0.000000,225.000000) scale(0.100000,-0.100000)"
fill="#000000" stroke="none">
<path d="M1007 1838 c-422 -25 -795 -221 -925 -488 -78 -158 -78 -292 0 -450
33 -69 57 -101 128 -170 211 -208 528 -320 910 -320 165 -1 262 11 403 46 456
113 741 415 697 736 -40 294 -371 551 -810 628 -101 18 -273 26 -403 18z m358
-53 c149 -22 266 -59 400 -125 231 -113 373 -267 409 -440 84 -412 -404 -770
-1049 -770 -300 1 -551 67 -756 202 -165 108 -273 253 -300 403 -60 328 296
650 806 729 122 19 366 19 490 1z"/>
<path d="M1005 1743 c-468 -40 -817 -262 -876 -557 -40 -196 112 -417 376
-548 416 -207 1018 -173 1371 77 178 127 274 311 245 471 -38 206 -237 392
-523 487 -180 60 -403 87 -593 70z m375 -58 c137 -24 228 -52 345 -110 362
-177 464 -465 254 -716 -118 -141 -356 -255 -629 -300 -174 -29 -447 -11 -640
41 -98 27 -280 117 -352 174 -268 213 -257 520 26 720 251 179 634 252 996
191z"/>
<path d="M1002 1564 c-201 -54 -333 -224 -334 -431 0 -101 20 -171 70 -249
119 -183 363 -256 557 -165 87 40 130 75 181 143 64 88 87 168 82 288 -3 88
-7 104 -41 174 -21 42 -41 76 -45 76 -4 0 -85 -61 -181 -136 -95 -74 -174
-134 -176 -132 -1 2 13 95 31 208 18 113 33 213 34 223 0 14 -9 17 -62 16 -35
0 -87 -7 -116 -15z m125 -39 c3 -9 -6 -91 -21 -183 -31 -198 -31 -194 -7 -223
25 -31 35 -26 210 110 112 88 146 109 157 100 7 -6 23 -36 35 -67 17 -47 20
-73 17 -153 -3 -83 -8 -104 -36 -161 -148 -301 -586 -301 -734 0 -31 64 -33
72 -33 182 0 103 3 121 26 170 37 79 109 154 182 190 92 45 193 62 204 35z"/>
</g>
</svg>
