<?xml version="1.0" encoding="UTF-8"?>
<!DOCTYPE svg PUBLIC "-//W3C//DTD SVG 1.1//EN" "http://www.w3.org/Graphics/SVG/1.1/DTD/svg11.dtd">
<svg xmlns="http://www.w3.org/2000/svg" version="1.1" width="225px" height="225px" style="shape-rendering:geometricPrecision; text-rendering:geometricPrecision; image-rendering:optimizeQuality; fill-rule:evenodd; clip-rule:evenodd" xmlns:xlink="http://www.w3.org/1999/xlink">
<g><path style="opacity:1" fill="#fefefe" d="M -0.5,-0.5 C 74.5,-0.5 149.5,-0.5 224.5,-0.5C 224.5,36.8333 224.5,74.1667 224.5,111.5C 189.394,69.5049 144.394,51.6715 89.5,58C 53.0989,65.3558 23.0989,83.1892 -0.5,111.5C -0.5,74.1667 -0.5,36.8333 -0.5,-0.5 Z"/></g>
<g><path style="opacity:1" fill="#080808" d="M 224.5,111.5 C 224.5,111.833 224.5,112.167 224.5,112.5C 181.022,162.485 127.356,177.985 63.5,159C 38.0842,149.079 16.7508,133.579 -0.5,112.5C -0.5,112.167 -0.5,111.833 -0.5,111.5C 23.0989,83.1892 53.0989,65.3558 89.5,58C 144.394,51.6715 189.394,69.5049 224.5,111.5 Z"/></g>
<g><path style="opacity:1" fill="#fcfcfc" d="M 94.5,63.5 C 143.249,59.7275 183.582,76.0609 215.5,112.5C 178.558,153.869 132.891,168.702 78.5,157C 50.8594,148.844 27.526,134.01 8.5,112.5C 19.5648,98.5999 32.8982,87.4332 48.5,79C 63.1728,71.4983 78.5061,66.3317 94.5,63.5 Z"/></g>
<g><path style="opacity:1" fill="#090909" d="M 104.5,84.5 C 120.923,82.124 132.423,88.4573 139,103.5C 141.335,128.831 129.835,140.664 104.5,139C 91.2249,134.468 84.5582,125.135 84.5,111C 85.3097,97.6967 91.9763,88.8633 104.5,84.5 Z"/></g>
<g><path style="opacity:1" fill="#fcfcfc" d="M 108.5,90.5 C 128.165,91.9986 135.665,102.332 131,121.5C 124.09,132.196 114.59,135.363 102.5,131C 90.8303,122.808 88.3303,112.308 95,99.5C 98.8597,95.3353 103.36,92.3353 108.5,90.5 Z"/></g>
<g><path style="opacity:1" fill="#fefefe" d="M -0.5,112.5 C 16.7508,133.579 38.0842,149.079 63.5,159C 127.356,177.985 181.022,162.485 224.5,112.5C 224.5,149.833 224.5,187.167 224.5,224.5C 149.5,224.5 74.5,224.5 -0.5,224.5C -0.5,187.167 -0.5,149.833 -0.5,112.5 Z"/></g>
</svg>
