<?xml version="1.0" standalone="no"?>
<!DOCTYPE svg PUBLIC "-//W3C//DTD SVG 20010904//EN"
 "http://www.w3.org/TR/2001/REC-SVG-20010904/DTD/svg10.dtd">
<svg version="1.0" xmlns="http://www.w3.org/2000/svg"
 width="216.000000pt" height="213.000000pt" viewBox="0 0 216.000000 213.000000"
 preserveAspectRatio="xMidYMid meet">
<metadata>
Created by potrace 1.10, written by Peter Selinger 2001-2011
</metadata>
<g transform="translate(0.000000,213.000000) scale(0.100000,-0.100000)"
fill="#000000" stroke="none">
<path d="M1015 1429 c-74 -11 -189 -65 -245 -115 -52 -46 -120 -148 -120 -179
0 -23 32 -57 64 -69 32 -11 56 4 101 66 74 102 158 148 271 148 109 0 180 -42
291 -174 28 -33 36 -37 60 -31 33 8 73 43 73 64 0 31 -44 103 -96 156 -104
106 -250 155 -399 134z m146 -39 c118 -22 251 -116 299 -210 11 -22 20 -42 20
-44 0 -6 -61 -39 -64 -34 -1 2 -19 29 -39 60 -144 215 -473 205 -599 -19 -23
-41 -35 -53 -47 -47 -9 3 -24 9 -33 11 -26 8 -22 23 20 89 65 100 158 165 272
190 70 16 104 16 171 4z"/>
<path d="M1108 1252 c-36 -4 -50 -24 -54 -74 -7 -78 -64 -101 -134 -53 -45 31
-63 26 -96 -30 -56 -96 -40 -231 38 -319 61 -70 116 -98 203 -104 63 -4 80 -1
134 23 187 84 237 321 97 470 -53 55 -135 94 -188 87z m88 -58 c123 -59 179
-214 120 -339 -43 -92 -127 -146 -231 -147 -188 -2 -311 186 -235 360 12 28
25 52 27 52 3 0 14 -11 25 -25 35 -45 114 -49 160 -9 24 23 37 72 27 108 -8
28 -8 29 30 23 21 -2 55 -13 77 -23z"/>
</g>
</svg>
