<svg version="1.1" id="Layer_1" xmlns="http://www.w3.org/2000/svg" xmlns:xlink="http://www.w3.org/1999/xlink" x="0px" y="0px"
	 width="100%" viewBox="0 0 217 232" enable-background="new 0 0 217 232" xml:space="preserve">
<path fill="#FDFDFD" opacity="1.000000" stroke="none" 
	d="
M181.000000,1.000000 
	C193.308182,1.000000 205.616379,1.000000 218.000000,1.000000 
	C218.000000,60.020874 218.000000,119.041779 217.665802,178.351135 
	C215.433746,171.617310 209.311325,176.274857 205.339386,174.122391 
	C205.114655,173.503479 204.888947,172.527435 204.430099,171.677216 
	C201.889359,166.969315 201.844147,162.948517 206.801056,159.548889 
	C208.017990,158.714279 209.287033,155.633545 208.766998,154.971100 
	C205.738815,151.113571 202.656494,146.962418 198.666275,144.297089 
	C195.145676,141.945450 192.997787,146.346909 190.569809,148.392593 
	C189.835312,149.011429 189.088043,149.615097 188.617767,150.002411 
	C182.361465,148.027847 177.243713,145.715210 178.821747,137.732178 
	C179.051300,136.570908 175.788345,133.424591 174.086777,133.381989 
	C161.004501,133.054504 158.458221,131.438034 159.091354,145.048859 
	C159.097763,145.186371 158.929535,145.332001 158.810638,145.526489 
	C155.803696,146.678833 152.751511,147.848511 149.736435,149.003967 
	C139.885010,140.541672 139.885010,140.541672 135.011765,145.371246 
	C126.955055,153.355774 126.955055,153.355774 134.735199,162.559052 
	C133.277222,165.646439 131.824783,168.734970 130.434525,171.691299 
	C118.310310,172.095444 117.627525,169.979172 117.858818,184.029053 
	C117.962769,190.343307 119.075012,191.468414 125.386742,191.692734 
	C127.111534,191.754059 129.710297,191.753769 130.356018,192.768921 
	C131.915024,195.219925 133.211288,198.231125 133.309219,201.061569 
	C133.362534,202.602249 130.856476,204.343094 129.321472,205.800644 
	C127.075348,207.933411 125.698456,210.179779 127.520325,213.209305 
	C133.503601,223.158661 138.365860,223.953415 146.589996,216.382187 
	C146.809891,216.179764 147.197388,216.159393 147.544785,216.041168 
	C148.851547,216.698044 150.113083,217.673889 151.519287,217.975723 
	C155.940079,218.924652 157.011826,221.527054 156.737228,225.823990 
	C156.588058,228.158264 158.188644,230.604355 159.000000,233.000000 
	C106.333313,233.000000 53.666618,233.000000 1.000000,233.000000 
	C1.000000,226.908920 1.000000,220.923828 1.333859,214.571930 
	C4.050597,220.024384 7.833252,224.085648 14.601113,224.095337 
	C38.256119,224.129227 61.911259,224.083908 85.566200,224.136826 
	C89.587517,224.145813 92.164436,222.496445 91.965561,218.379074 
	C91.785698,214.655304 89.360802,213.089233 85.524345,213.107254 
	C63.369404,213.211395 41.213810,213.184753 19.058447,213.178131 
	C17.131933,213.177551 15.205473,213.001236 13.164989,212.900955 
	C13.059803,211.372818 12.934016,210.397263 12.933873,209.421692 
	C12.924434,145.286499 12.972513,81.151199 12.823719,17.016348 
	C12.813246,12.501919 14.854496,12.315365 18.284695,12.319516 
	C70.592285,12.382836 122.900085,12.410160 175.207428,12.278586 
	C179.578461,12.267591 180.923767,13.528718 180.895676,17.941351 
	C180.717453,45.926483 180.804611,73.913307 180.806015,101.899574 
	C180.806076,103.232132 180.313110,104.912720 180.936569,105.825447 
	C182.271240,107.779327 184.132080,110.632729 185.879623,110.706795 
	C187.791916,110.787849 190.105850,108.398712 191.673508,106.590813 
	C192.434982,105.712631 191.935959,103.705048 191.936417,102.208725 
	C191.944855,74.055878 191.797546,45.901821 192.031448,17.750914 
	C192.101181,9.358393 188.915359,3.795296 181.000000,1.000000 
M124.499908,44.999718 
	C110.196190,44.999866 95.892197,45.047985 81.588921,44.969044 
	C77.628136,44.947182 75.047668,46.368828 75.000374,50.570122 
	C74.953011,54.778767 77.417549,56.207260 81.456261,56.188713 
	C102.079788,56.094009 122.704468,56.072033 143.327515,56.209141 
	C147.253296,56.235237 149.580032,54.674625 149.675903,50.952526 
	C149.774612,47.119514 147.729233,44.854904 143.461639,44.962204 
	C137.477844,45.112648 131.487396,44.999889 124.499908,44.999718 
M73.603500,103.211716 
	C74.335808,103.539139 75.067169,104.150291 75.800568,104.152733 
	C97.751457,104.225746 119.703819,104.337357 141.650986,104.055832 
	C143.246048,104.035378 145.725983,101.320984 146.189270,99.459572 
	C147.196732,95.411659 144.569763,93.152641 139.586899,93.143875 
	C119.297737,93.108192 99.008415,93.105743 78.719254,93.142487 
	C72.263786,93.154175 70.482162,96.169563 73.603500,103.211716 
M35.003422,55.369743 
	C35.007584,62.047421 35.007584,62.047646 41.707481,62.048080 
	C46.203014,62.048374 50.702362,61.936203 55.192657,62.089485 
	C57.907104,62.182144 59.161396,61.392330 59.045074,58.444523 
	C58.861401,53.789734 58.902447,49.119762 59.032597,44.461369 
	C59.105587,41.848969 58.076935,40.914639 55.504257,40.967739 
	C49.845627,41.084534 44.181309,41.083126 38.522614,40.967937 
	C35.985783,40.916298 34.852303,41.764347 34.968895,44.418102 
	C35.114910,47.741703 35.003639,51.076607 35.003422,55.369743 
M35.286167,141.943039 
	C35.192276,147.592972 34.979504,153.245697 35.111282,158.890366 
	C35.135742,159.938187 36.538166,161.837204 37.320965,161.845734 
	C44.272030,161.921570 51.226772,161.660172 58.180435,161.498260 
	C58.452446,155.920639 58.724674,150.343048 58.995419,144.765366 
	C59.003479,144.599228 59.067863,144.367004 58.984875,144.275726 
	C57.967117,143.156448 56.953636,141.135391 55.887775,141.104279 
	C49.249683,140.910507 42.598557,141.163498 35.286167,141.943039 
M107.119507,152.816620 
	C107.894806,146.810593 106.490402,144.999176 100.920784,144.970078 
	C94.284523,144.935394 87.646095,145.055984 81.012184,144.926453 
	C77.079414,144.849670 74.989655,146.642441 75.008659,150.460632 
	C75.027313,154.210037 77.016830,156.137878 80.975273,156.070160 
	C87.775642,155.953812 94.586792,156.212082 101.377037,155.925293 
	C103.260002,155.845749 105.085182,154.398148 107.119507,152.816620 
M56.575577,97.633698 
	C56.041389,95.773163 55.507206,93.912636 54.973019,92.052101 
	C53.219391,92.576912 51.227173,92.738937 49.762077,93.702469 
	C46.761971,95.675507 44.044834,98.078819 40.547386,100.826447 
	C39.748375,99.673744 39.181896,98.639809 38.412659,97.789238 
	C36.461834,95.632126 33.924728,95.627068 32.510891,97.806534 
	C31.732683,99.006165 32.324333,101.695076 33.185364,103.207634 
	C34.298214,105.162544 36.319874,106.591751 37.908848,108.286118 
	C39.869671,110.376991 41.707420,110.365456 43.884579,108.438332 
	C47.853615,104.925117 51.984959,101.595284 56.575577,97.633698 
z"/>
<path fill="#030303" opacity="1.000000" stroke="none" 
	d="
M180.531342,1.000000 
	C188.915359,3.795296 192.101181,9.358393 192.031448,17.750914 
	C191.797546,45.901821 191.944855,74.055878 191.936417,102.208725 
	C191.935959,103.705048 192.434982,105.712631 191.673508,106.590813 
	C190.105850,108.398712 187.791916,110.787849 185.879623,110.706795 
	C184.132080,110.632729 182.271240,107.779327 180.936569,105.825447 
	C180.313110,104.912720 180.806076,103.232132 180.806015,101.899574 
	C180.804611,73.913307 180.717453,45.926483 180.895676,17.941351 
	C180.923767,13.528718 179.578461,12.267591 175.207428,12.278586 
	C122.900085,12.410160 70.592285,12.382836 18.284695,12.319516 
	C14.854496,12.315365 12.813246,12.501919 12.823719,17.016348 
	C12.972513,81.151199 12.924434,145.286499 12.933873,209.421692 
	C12.934016,210.397263 13.059803,211.372818 13.164989,212.900955 
	C15.205473,213.001236 17.131933,213.177551 19.058447,213.178131 
	C41.213810,213.184753 63.369404,213.211395 85.524345,213.107254 
	C89.360802,213.089233 91.785698,214.655304 91.965561,218.379074 
	C92.164436,222.496445 89.587517,224.145813 85.566200,224.136826 
	C61.911259,224.083908 38.256119,224.129227 14.601113,224.095337 
	C7.833252,224.085648 4.050597,220.024384 1.333859,214.102539 
	C1.000000,214.000000 1.000000,213.500000 1.379736,213.040329 
	C1.837325,211.923935 1.983260,211.267242 1.983359,210.610504 
	C1.993147,145.579605 1.997094,80.548698 1.950048,15.517828 
	C1.949200,14.344990 1.330441,13.172600 1.000000,12.000000 
	C1.000000,12.000000 1.000000,11.500000 1.337504,11.174299 
	C3.555746,5.929300 7.248533,2.909706 12.000000,1.000000 
	C68.020897,1.000000 124.041786,1.000000 180.531342,1.000000 
z"/>
<path fill="#020202" opacity="1.000000" stroke="none" 
	d="
M159.466125,233.000000 
	C158.188644,230.604355 156.588058,228.158264 156.737228,225.823990 
	C157.011826,221.527054 155.940079,218.924652 151.519287,217.975723 
	C150.113083,217.673889 148.851547,216.698044 147.544785,216.041168 
	C147.197388,216.159393 146.809891,216.179764 146.589996,216.382187 
	C138.365860,223.953415 133.503601,223.158661 127.520325,213.209305 
	C125.698456,210.179779 127.075348,207.933411 129.321472,205.800644 
	C130.856476,204.343094 133.362534,202.602249 133.309219,201.061569 
	C133.211288,198.231125 131.915024,195.219925 130.356018,192.768921 
	C129.710297,191.753769 127.111534,191.754059 125.386742,191.692734 
	C119.075012,191.468414 117.962769,190.343307 117.858818,184.029053 
	C117.627525,169.979172 118.310310,172.095444 130.434525,171.691299 
	C131.824783,168.734970 133.277222,165.646439 134.735199,162.559052 
	C126.955055,153.355774 126.955055,153.355774 135.011765,145.371246 
	C139.885010,140.541672 139.885010,140.541672 149.736435,149.003967 
	C152.751511,147.848511 155.803696,146.678833 158.810638,145.526489 
	C158.929535,145.332001 159.097763,145.186371 159.091354,145.048859 
	C158.458221,131.438034 161.004501,133.054504 174.086777,133.381989 
	C175.788345,133.424591 179.051300,136.570908 178.821747,137.732178 
	C177.243713,145.715210 182.361465,148.027847 188.617767,150.002411 
	C189.088043,149.615097 189.835312,149.011429 190.569809,148.392593 
	C192.997787,146.346909 195.145676,141.945450 198.666275,144.297089 
	C202.656494,146.962418 205.738815,151.113571 208.766998,154.971100 
	C209.287033,155.633545 208.017990,158.714279 206.801056,159.548889 
	C201.844147,162.948517 201.889359,166.969315 204.430099,171.677216 
	C204.888947,172.527435 205.114655,173.503479 205.339386,174.122391 
	C209.311325,176.274857 215.433746,171.617310 217.665802,178.819794 
	C218.000000,182.692902 218.000000,186.385818 217.661591,190.707733 
	C215.426361,195.347534 211.719971,194.320602 208.562775,194.224884 
	C205.834320,194.142166 204.248245,194.784805 203.478760,197.595001 
	C202.885788,199.760635 201.690155,201.761246 200.460815,204.509689 
	C201.768509,205.543839 203.188797,206.459991 204.356674,207.628448 
	C208.236084,211.509705 208.214462,213.272614 204.434052,217.185120 
	C203.624969,218.022491 202.787766,218.832657 201.965378,219.657227 
	C195.639725,225.999542 195.133011,225.982605 188.835632,219.807739 
	C187.828461,218.820160 186.330536,217.260834 185.397064,217.470291 
	C182.536606,218.112167 179.444870,218.995789 177.240326,220.773895 
	C176.064636,221.722183 176.712524,224.753189 176.209213,226.761948 
	C175.675461,228.892075 174.752808,230.924759 174.000000,233.000000 
	C169.310745,233.000000 164.621490,233.000000 159.466125,233.000000 
M186.232605,175.551788 
	C181.996902,166.938339 174.514084,162.334335 166.028214,163.120468 
	C157.698578,163.892105 150.126663,170.309906 148.198288,178.232727 
	C146.181564,186.518524 149.594635,195.166504 156.784698,199.988937 
	C163.530396,204.513351 172.690765,204.238785 179.657806,199.303375 
	C186.689423,194.322174 189.113708,186.288864 186.232605,175.551788 
z"/>
<path fill="#FAFAFA" opacity="1.000000" stroke="none" 
	d="
M174.468658,233.000000 
	C174.752808,230.924759 175.675461,228.892075 176.209213,226.761948 
	C176.712524,224.753189 176.064636,221.722183 177.240326,220.773895 
	C179.444870,218.995789 182.536606,218.112167 185.397064,217.470291 
	C186.330536,217.260834 187.828461,218.820160 188.835632,219.807739 
	C195.133011,225.982605 195.639725,225.999542 201.965378,219.657227 
	C202.787766,218.832657 203.624969,218.022491 204.434052,217.185120 
	C208.214462,213.272614 208.236084,211.509705 204.356674,207.628448 
	C203.188797,206.459991 201.768509,205.543839 200.460815,204.509689 
	C201.690155,201.761246 202.885788,199.760635 203.478760,197.595001 
	C204.248245,194.784805 205.834320,194.142166 208.562775,194.224884 
	C211.719971,194.320602 215.426361,195.347534 217.661591,191.168365 
	C218.000000,204.928391 218.000000,218.856781 218.000000,233.000000 
	C203.646484,233.000000 189.291901,233.000000 174.468658,233.000000 
z"/>
<path fill="#888888" opacity="1.000000" stroke="none" 
	d="
M1.000000,12.468657 
	C1.330441,13.172600 1.949200,14.344990 1.950048,15.517828 
	C1.997094,80.548698 1.993147,145.579605 1.983359,210.610504 
	C1.983260,211.267242 1.837325,211.923935 1.379736,212.790329 
	C1.000000,146.312439 1.000000,79.624878 1.000000,12.468657 
z"/>
<path fill="#F7F7F7" opacity="1.000000" stroke="none" 
	d="
M11.517044,1.000000 
	C7.248533,2.909706 3.555746,5.929300 1.337504,10.924299 
	C1.000000,7.742425 1.000000,4.484849 1.000000,1.000000 
	C4.342758,1.000000 7.688423,1.000000 11.517044,1.000000 
z"/>
<path fill="#010101" opacity="1.000000" stroke="none" 
	d="
M124.999855,44.999718 
	C131.487396,44.999889 137.477844,45.112648 143.461639,44.962204 
	C147.729233,44.854904 149.774612,47.119514 149.675903,50.952526 
	C149.580032,54.674625 147.253296,56.235237 143.327515,56.209141 
	C122.704468,56.072033 102.079788,56.094009 81.456261,56.188713 
	C77.417549,56.207260 74.953011,54.778767 75.000374,50.570122 
	C75.047668,46.368828 77.628136,44.947182 81.588921,44.969044 
	C95.892197,45.047985 110.196190,44.999866 124.999855,44.999718 
z"/>
<path fill="#050505" opacity="1.000000" stroke="none" 
	d="
M73.294556,102.904526 
	C70.482162,96.169563 72.263786,93.154175 78.719254,93.142487 
	C99.008415,93.105743 119.297737,93.108192 139.586899,93.143875 
	C144.569763,93.152641 147.196732,95.411659 146.189270,99.459572 
	C145.725983,101.320984 143.246048,104.035378 141.650986,104.055832 
	C119.703819,104.337357 97.751457,104.225746 75.800568,104.152733 
	C75.067169,104.150291 74.335808,103.539139 73.294556,102.904526 
z"/>
<path fill="#000000" opacity="1.000000" stroke="none" 
	d="
M35.003422,54.888187 
	C35.003639,51.076607 35.114910,47.741703 34.968895,44.418102 
	C34.852303,41.764347 35.985783,40.916298 38.522614,40.967937 
	C44.181309,41.083126 49.845627,41.084534 55.504257,40.967739 
	C58.076935,40.914639 59.105587,41.848969 59.032597,44.461369 
	C58.902447,49.119762 58.861401,53.789734 59.045074,58.444523 
	C59.161396,61.392330 57.907104,62.182144 55.192657,62.089485 
	C50.702362,61.936203 46.203014,62.048374 41.707481,62.048080 
	C35.007584,62.047646 35.007584,62.047421 35.003422,54.888187 
z"/>
<path fill="#000000" opacity="1.000000" stroke="none" 
	d="
M35.618958,141.605713 
	C42.598557,141.163498 49.249683,140.910507 55.887775,141.104279 
	C56.953636,141.135391 57.967117,143.156448 58.984875,144.275726 
	C59.067863,144.367004 59.003479,144.599228 58.995419,144.765366 
	C58.724674,150.343048 58.452446,155.920639 58.180435,161.498260 
	C51.226772,161.660172 44.272030,161.921570 37.320965,161.845734 
	C36.538166,161.837204 35.135742,159.938187 35.111282,158.890366 
	C34.979504,153.245697 35.192276,147.592972 35.618958,141.605713 
z"/>
<path fill="#020202" opacity="1.000000" stroke="none" 
	d="
M107.028191,153.197418 
	C105.085182,154.398148 103.260002,155.845749 101.377037,155.925293 
	C94.586792,156.212082 87.775642,155.953812 80.975273,156.070160 
	C77.016830,156.137878 75.027313,154.210037 75.008659,150.460632 
	C74.989655,146.642441 77.079414,144.849670 81.012184,144.926453 
	C87.646095,145.055984 94.284523,144.935394 100.920784,144.970078 
	C106.490402,144.999176 107.894806,146.810593 107.028191,153.197418 
z"/>
<path fill="#090909" opacity="1.000000" stroke="none" 
	d="
M56.312084,97.911316 
	C51.984959,101.595284 47.853615,104.925117 43.884579,108.438332 
	C41.707420,110.365456 39.869671,110.376991 37.908848,108.286118 
	C36.319874,106.591751 34.298214,105.162544 33.185364,103.207634 
	C32.324333,101.695076 31.732683,99.006165 32.510891,97.806534 
	C33.924728,95.627068 36.461834,95.632126 38.412659,97.789238 
	C39.181896,98.639809 39.748375,99.673744 40.547386,100.826447 
	C44.044834,98.078819 46.761971,95.675507 49.762077,93.702469 
	C51.227173,92.738937 53.219391,92.576912 54.973019,92.052101 
	C55.507206,93.912636 56.041389,95.773163 56.312084,97.911316 
z"/>
<path fill="#FCFCFC" opacity="1.000000" stroke="none" 
	d="
M186.424835,175.897125 
	C189.113708,186.288864 186.689423,194.322174 179.657806,199.303375 
	C172.690765,204.238785 163.530396,204.513351 156.784698,199.988937 
	C149.594635,195.166504 146.181564,186.518524 148.198288,178.232727 
	C150.126663,170.309906 157.698578,163.892105 166.028214,163.120468 
	C174.514084,162.334335 181.996902,166.938339 186.424835,175.897125 
z"/>
</svg>